PathFileType	4	(X/Y/Z)	 1.9Hzlow3min.trc
DataRate	CameraRate	NumFrames	NumMarkers	Units	OrigDataRate	OrigDataStartFrame	OrigNumFrames
200	200	9	39	m	200	1	1000
Frame#	Time	C7			LSH			RSH			MAN			RASI			LASI			HIPR			HIPL			RPSI			LPSI			COX			RTHI1			RTHI2			RTHI3			RTHI4			RLKN			RMKN			RSHA1			RSHA2			RSHA3			RSHA4			RHEEL			RMET5			RMET1			RTOE			LTHI1			LTHI2			LTHI3			LTHI4			LLKN			LMKN			LSHA1			LSHA2			LSHA3			LSHA4			LHEEL			LMET5			LMET1			LTOE			
		X1	Y1	Z1	X2	Y2	Z2	X3	Y3	Z3	X4	Y4	Z4	X5	Y5	Z5	X6	Y6	Z6	X7	Y7	Z7	X8	Y8	Z8	X9	Y9	Z9	X10	Y10	Z10	X11	Y11	Z11	X12	Y12	Z12	X13	Y13	Z13	X14	Y14	Z14	X15	Y15	Z15	X16	Y16	Z16	X17	Y17	Z17	X18	Y18	Z18	X19	Y19	Z19	X20	Y20	Z20	X21	Y21	Z21	X22	Y22	Z22	X23	Y23	Z23	X24	Y24	Z24	X25	Y25	Z25	X26	Y26	Z26	X27	Y27	Z27	X28	Y28	Z28	X29	Y29	Z29	X30	Y30	Z30	X31	Y31	Z31	X32	Y32	Z32	X33	Y33	Z33	X34	Y34	Z34	X35	Y35	Z35	X36	Y36	Z36	X37	Y37	Z37	X38	Y38	Z38	X39	Y39	Z39	
1	0.0050	-0.289484	1.455476	-0.551781	-0.246735	1.439512	-0.740925	-0.266961	1.438252	-0.370928	-0.143601	1.400510	-0.552656	-0.180935	0.937778	-0.446926	-0.176758	0.935112	-0.681635	-0.252534	1.007831	-0.395223	-0.231584	0.993296	-0.728672	-0.355171	1.000669	-0.530773	-0.355368	0.996631	-0.598109	-0.355699	0.996383	-0.566254	-0.256236	0.764081	-0.361986	-0.235216	0.709033	-0.353081	-0.173445	0.729809	-0.355804	-0.188036	0.788520	-0.366161	-0.176408	0.453897	-0.376777	-0.151403	0.444841	-0.486275	-0.285162	0.349837	-0.356970	-0.305131	0.314250	-0.370530	-0.249039	0.291222	-0.369802	-0.232924	0.327080	-0.361184	-0.425257	0.083141	-0.466775	-0.272213	0.035696	-0.380185	-0.211471	0.046725	-0.439660	-0.187251	0.037202	-0.436288	-0.238149	0.724423	-0.767067	-0.212745	0.668140	-0.771590	-0.151984	0.689603	-0.771013	-0.168525	0.747683	-0.766134	-0.157154	0.445620	-0.740124	-0.130216	0.438748	-0.638775	-0.275743	0.331380	-0.748815	-0.295572	0.296710	-0.739632	-0.238035	0.271321	-0.740166	-0.225112	0.312284	-0.749638	-0.411672	0.078117	-0.640166	-0.260586	0.036419	-0.736943	-0.199735	0.047865	-0.669849	-0.174612	0.036428	-0.681138	
2	0.0100	-0.289957	1.461283	-0.551738	-0.247159	1.445866	-0.740631	-0.267452	1.444275	-0.371111	-0.144134	1.406920	-0.552636	-0.179438	0.943757	-0.447162	-0.175250	0.941080	-0.681739	-0.250978	1.013943	-0.395687	-0.229263	0.999691	-0.728963	-0.353669	1.006286	-0.531173	-0.353832	1.002387	-0.598577	-0.354377	1.002138	-0.566773	-0.255764	0.769799	-0.362478	-0.235267	0.714488	-0.353501	-0.173242	0.734891	-0.356213	-0.187343	0.793683	-0.366597	-0.179228	0.458752	-0.377233	-0.154444	0.449527	-0.486842	-0.287435	0.353986	-0.357343	-0.306972	0.318121	-0.370787	-0.250655	0.295527	-0.369741	-0.234963	0.331647	-0.361221	-0.424435	0.086337	-0.466197	-0.271991	0.035859	-0.380378	-0.211352	0.046671	-0.439676	-0.187219	0.037187	-0.436437	-0.238556	0.729695	-0.766861	-0.213792	0.673147	-0.771286	-0.152751	0.693914	-0.771130	-0.168648	0.752206	-0.766423	-0.160376	0.450204	-0.739586	-0.133913	0.443740	-0.637959	-0.278319	0.335278	-0.748159	-0.297830	0.300406	-0.739032	-0.240144	0.275444	-0.740112	-0.227573	0.316568	-0.749490	-0.410680	0.080813	-0.640000	-0.260373	0.036650	-0.736521	-0.199243	0.047903	-0.669502	-0.174231	0.036602	-0.680737	
3	0.0150	-0.290381	1.467117	-0.551711	-0.247438	1.452255	-0.740281	-0.267918	1.450330	-0.371294	-0.144675	1.413362	-0.552605	-0.178008	0.949738	-0.447410	-0.173783	0.947087	-0.681865	-0.249500	1.020128	-0.396138	-0.227025	1.006186	-0.729230	-0.352177	1.011980	-0.531541	-0.352291	1.008201	-0.599027	-0.353175	1.008058	-0.567306	-0.255219	0.775570	-0.362890	-0.235213	0.720113	-0.353770	-0.173004	0.740045	-0.356605	-0.186612	0.798916	-0.367041	-0.181919	0.463725	-0.377661	-0.157392	0.454351	-0.487404	-0.289578	0.358224	-0.357599	-0.308694	0.322125	-0.370894	-0.252141	0.299964	-0.369567	-0.236873	0.336326	-0.361168	-0.423374	0.089735	-0.465508	-0.271708	0.036111	-0.380521	-0.211219	0.046624	-0.439731	-0.187231	0.037132	-0.436611	-0.238851	0.735229	-0.766709	-0.214634	0.678448	-0.771011	-0.153373	0.698633	-0.771166	-0.168693	0.757072	-0.766625	-0.163432	0.454963	-0.739058	-0.137393	0.448848	-0.637203	-0.280737	0.339311	-0.747639	-0.299919	0.304248	-0.738600	-0.242080	0.279719	-0.740146	-0.229864	0.321016	-0.749447	-0.409672	0.083755	-0.640105	-0.260143	0.036859	-0.736155	-0.199139	0.047778	-0.669548	-0.174066	0.036668	-0.680534	
4	0.0200	-0.290794	1.472947	-0.551686	-0.247714	1.458649	-0.739937	-0.268373	1.456380	-0.371480	-0.145212	1.419797	-0.552573	-0.176585	0.955716	-0.447664	-0.172321	0.953102	-0.682000	-0.248015	1.026315	-0.396589	-0.224832	1.012706	-0.729489	-0.350699	1.017679	-0.531901	-0.350761	1.014024	-0.599465	-0.351914	1.013940	-0.567796	-0.254669	0.781354	-0.363295	-0.235154	0.725747	-0.354051	-0.172755	0.745213	-0.356994	-0.185875	0.804165	-0.367469	-0.184565	0.468730	-0.378091	-0.160296	0.459196	-0.487949	-0.291679	0.362488	-0.357835	-0.310376	0.326164	-0.370974	-0.253601	0.304442	-0.369367	-0.238742	0.341040	-0.361093	-0.422273	0.093198	-0.464790	-0.271410	0.036356	-0.380619	-0.211103	0.046580	-0.439768	-0.187246	0.037083	-0.436777	-0.239113	0.740816	-0.766571	-0.215429	0.683805	-0.770750	-0.153957	0.703427	-0.771175	-0.168717	0.762009	-0.766797	-0.166461	0.459758	-0.738547	-0.140813	0.453951	-0.636472	-0.283115	0.343364	-0.747159	-0.301973	0.308108	-0.738211	-0.243974	0.284024	-0.740210	-0.232116	0.325492	-0.749417	-0.408638	0.086745	-0.640267	-0.259884	0.037090	-0.735826	-0.198954	0.047710	-0.669506	-0.173881	0.036755	-0.680303	
5	0.0250	-0.291171	1.478784	-0.551667	-0.247928	1.465062	-0.739578	-0.268807	1.462445	-0.371672	-0.145745	1.426231	-0.552535	-0.175208	0.961684	-0.447932	-0.170890	0.959144	-0.682154	-0.246560	1.032533	-0.397035	-0.222747	1.019289	-0.729732	-0.349248	1.023413	-0.532237	-0.349245	1.019878	-0.599875	-0.350626	1.019837	-0.568232	-0.254082	0.787167	-0.363653	-0.235045	0.731460	-0.354280	-0.172477	0.750424	-0.357366	-0.185119	0.809460	-0.367874	-0.187114	0.473832	-0.378497	-0.163093	0.464132	-0.488465	-0.293667	0.366827	-0.357988	-0.311954	0.330306	-0.370948	-0.254962	0.309037	-0.369083	-0.240501	0.345854	-0.360949	-0.420996	0.096816	-0.463951	-0.271061	0.036650	-0.380650	-0.210998	0.046553	-0.439814	-0.187280	0.037033	-0.436954	-0.239284	0.746577	-0.766468	-0.216071	0.689360	-0.770521	-0.154424	0.708493	-0.771115	-0.168678	0.767181	-0.766888	-0.169384	0.464678	-0.738067	-0.144050	0.459087	-0.635813	-0.285368	0.347501	-0.746790	-0.303907	0.312051	-0.737956	-0.245736	0.288434	-0.740355	-0.234241	0.330074	-0.749456	-0.407557	0.089901	-0.640622	-0.259585	0.037321	-0.735586	-0.198869	0.047609	-0.669569	-0.173790	0.036788	-0.680133	
6	0.0300	-0.291521	1.484596	-0.551651	-0.248137	1.471486	-0.739242	-0.269198	1.468482	-0.371875	-0.146260	1.432638	-0.552498	-0.173851	0.967635	-0.448215	-0.169469	0.965196	-0.682332	-0.245085	1.038742	-0.397481	-0.220795	1.025909	-0.729960	-0.347835	1.029146	-0.532546	-0.347757	1.025742	-0.600248	-0.349228	1.025682	-0.568578	-0.253483	0.793008	-0.363998	-0.234900	0.737192	-0.354585	-0.172174	0.755656	-0.357728	-0.184351	0.814794	-0.368236	-0.189582	0.479024	-0.378886	-0.165766	0.469127	-0.488933	-0.295534	0.371260	-0.358077	-0.313419	0.334530	-0.370853	-0.256225	0.313731	-0.368732	-0.242148	0.350769	-0.360749	-0.419580	0.100569	-0.462985	-0.270663	0.036967	-0.380616	-0.210903	0.046522	-0.439852	-0.187335	0.036998	-0.437128	-0.239375	0.752456	-0.766390	-0.216591	0.695044	-0.770327	-0.154788	0.713733	-0.770992	-0.168591	0.772520	-0.766904	-0.172251	0.469662	-0.737621	-0.147143	0.464189	-0.635242	-0.287517	0.351688	-0.746523	-0.305738	0.316040	-0.737818	-0.247379	0.292910	-0.740583	-0.236264	0.334719	-0.749527	-0.406402	0.093193	-0.641155	-0.259264	0.037556	-0.735435	-0.198804	0.047527	-0.669690	-0.173707	0.036833	-0.679963	
7	0.0350	-0.291841	1.490377	-0.551636	-0.248327	1.477890	-0.738911	-0.269558	1.474495	-0.372090	-0.146757	1.439004	-0.552461	-0.172526	0.973560	-0.448506	-0.168076	0.971255	-0.682532	-0.243626	1.044936	-0.397912	-0.219006	1.032553	-0.730170	-0.346465	1.034872	-0.532819	-0.346431	1.031696	-0.600572	-0.347804	1.031510	-0.568865	-0.252882	0.798859	-0.364333	-0.234735	0.742926	-0.354936	-0.171863	0.760912	-0.358073	-0.183587	0.820149	-0.368553	-0.191964	0.484297	-0.379249	-0.168281	0.474178	-0.489341	-0.297272	0.375775	-0.358118	-0.314759	0.338833	-0.370689	-0.257386	0.318545	-0.368308	-0.243675	0.355780	-0.360489	-0.418015	0.104442	-0.461914	-0.270224	0.037295	-0.380499	-0.210824	0.046503	-0.439863	-0.187401	0.036977	-0.437291	-0.239384	0.758437	-0.766340	-0.216982	0.700846	-0.770163	-0.155050	0.719140	-0.770813	-0.168447	0.778008	-0.766855	-0.175048	0.474722	-0.737227	-0.150098	0.469254	-0.634776	-0.289557	0.355925	-0.746368	-0.307456	0.320071	-0.737807	-0.248905	0.297464	-0.740911	-0.238172	0.339432	-0.749668	-0.405157	0.096630	-0.641871	-0.258902	0.037790	-0.735391	-0.198683	0.047501	-0.669793	-0.173642	0.036864	-0.679794	
8	0.0400	-0.292133	1.496103	-0.551625	-0.248497	1.484249	-0.738590	-0.269881	1.480469	-0.372320	-0.147236	1.445302	-0.552426	-0.171236	0.979446	-0.448801	-0.166711	0.977299	-0.682757	-0.242185	1.051091	-0.398324	-0.217398	1.039165	-0.730366	-0.345139	1.040566	-0.533049	-0.345321	1.037748	-0.600838	-0.346355	1.037289	-0.569085	-0.252295	0.804687	-0.364671	-0.234561	0.748632	-0.355343	-0.171547	0.766167	-0.358395	-0.182839	0.825509	-0.368818	-0.194261	0.489628	-0.379591	-0.170623	0.479269	-0.489685	-0.298875	0.380354	-0.358118	-0.315968	0.343206	-0.370462	-0.258435	0.323450	-0.367822	-0.245074	0.360878	-0.360181	-0.416294	0.108402	-0.460725	-0.269710	0.037650	-0.380311	-0.210743	0.046494	-0.439860	-0.187461	0.036983	-0.437434	-0.239321	0.764464	-0.766316	-0.217268	0.706719	-0.770028	-0.155222	0.724645	-0.770604	-0.168257	0.783583	-0.766757	-0.177797	0.479827	-0.736890	-0.152909	0.474261	-0.634421	-0.291496	0.360181	-0.746315	-0.309069	0.324124	-0.737908	-0.250315	0.302058	-0.741332	-0.239981	0.344188	-0.749876	-0.403812	0.100173	-0.642738	-0.258515	0.038037	-0.735461	-0.198572	0.047476	-0.669944	-0.173601	0.036863	-0.679614	
9	0.0450	-0.292418	1.501754	-0.551625	-0.248651	1.490546	-0.738282	-0.270165	1.486384	-0.372562	-0.147696	1.451510	-0.552399	-0.169986	0.985276	-0.449090	-0.165379	0.983305	-0.683000	-0.240779	1.057185	-0.398717	-0.215982	1.045718	-0.730550	-0.343863	1.046207	-0.533233	-0.344384	1.043837	-0.601042	-0.344954	1.043068	-0.569274	-0.251730	0.810478	-0.365016	-0.234384	0.754286	-0.355809	-0.171238	0.771413	-0.358684	-0.182120	0.830854	-0.369033	-0.196512	0.494990	-0.379898	-0.172785	0.484380	-0.489968	-0.300341	0.384987	-0.358091	-0.317036	0.347608	-0.370193	-0.259350	0.328423	-0.367292	-0.246344	0.366041	-0.359837	-0.414436	0.112426	-0.459456	-0.269147	0.038037	-0.380101	-0.210656	0.046500	-0.439828	-0.187527	0.037000	-0.437554	-0.239205	0.770488	-0.766304	-0.217475	0.712604	-0.769911	-0.155325	0.730178	-0.770379	-0.168030	0.789182	-0.766626	-0.180507	0.484938	-0.736603	-0.155611	0.479188	-0.634180	-0.293338	0.364443	-0.746344	-0.310574	0.328182	-0.738110	-0.251621	0.306680	-0.741844	-0.241698	0.348956	-0.750147	-0.402362	0.103796	-0.643730	-0.258118	0.038258	-0.735617	-0.198453	0.047475	-0.670170	-0.173563	0.036864	-0.679470	
